<mxfile host="app.diagrams.net" modified="2024-06-04T15:53:11.430Z" agent="Mozilla/5.0 (Windows NT 10.0; Win64; x64) AppleWebKit/537.36 (KHTML, like Gecko) Chrome/125.0.0.0 Safari/537.36" etag="Hs-0g-1jans5dDBsRTE8" version="24.4.13" type="device">
  <diagram name="Страница — 1" id="NntWnEEcjp3JlhLhP7SL">
    <mxGraphModel dx="1967" dy="588" grid="1" gridSize="10" guides="1" tooltips="1" connect="1" arrows="1" fold="1" page="1" pageScale="1" pageWidth="827" pageHeight="1169" math="0" shadow="0">
      <root>
        <mxCell id="0" />
        <mxCell id="1" parent="0" />
        <mxCell id="Hx1Wna5k6tbOr8KZEkLQ-21" value="Windows Server 2022" style="verticalAlign=top;align=left;spacingTop=8;spacingLeft=2;spacingRight=12;shape=cube;size=10;direction=south;fontStyle=4;html=1;whiteSpace=wrap;fillColor=none;fontFamily=Times New Roman;" parent="1" vertex="1">
          <mxGeometry x="-320" y="230" width="800" height="430" as="geometry" />
        </mxCell>
        <mxCell id="REvpEQ_7IWV6Kqo4Qp0O-2" value="Node.js 21.7.3" style="verticalAlign=top;align=left;spacingTop=8;spacingLeft=2;spacingRight=12;shape=cube;size=10;direction=south;fontStyle=4;html=1;whiteSpace=wrap;fillColor=none;fontFamily=Times New Roman;" parent="1" vertex="1">
          <mxGeometry x="-300" y="300" width="180" height="140" as="geometry" />
        </mxCell>
        <mxCell id="Hx1Wna5k6tbOr8KZEkLQ-1" value="" style="rounded=0;whiteSpace=wrap;html=1;dashed=1;fillColor=none;perimeterSpacing=0;fontFamily=Times New Roman;glass=0;strokeWidth=1;dashPattern=8 8;" parent="1" vertex="1">
          <mxGeometry x="-100" y="260" width="550" height="380" as="geometry" />
        </mxCell>
        <mxCell id="Hx1Wna5k6tbOr8KZEkLQ-2" style="edgeStyle=orthogonalEdgeStyle;rounded=0;orthogonalLoop=1;jettySize=auto;html=1;startArrow=classic;startFill=1;fontFamily=Times New Roman;entryX=0.875;entryY=0.5;entryDx=0;entryDy=0;entryPerimeter=0;" parent="1" source="Hx1Wna5k6tbOr8KZEkLQ-3" target="REvpEQ_7IWV6Kqo4Qp0O-1" edge="1">
          <mxGeometry relative="1" as="geometry">
            <Array as="points">
              <mxPoint x="250" y="125" />
              <mxPoint x="250" y="125" />
            </Array>
          </mxGeometry>
        </mxCell>
        <mxCell id="Hx1Wna5k6tbOr8KZEkLQ-3" value="&lt;span style=&quot;text-align: center;&quot;&gt;Google Chrome 125.0.6422&lt;/span&gt;" style="verticalAlign=top;align=left;spacingTop=8;spacingLeft=2;spacingRight=12;shape=cube;size=10;direction=south;fontStyle=4;html=1;whiteSpace=wrap;fillColor=none;fontFamily=Times New Roman;" parent="1" vertex="1">
          <mxGeometry x="290" y="52.5" width="190" height="147.5" as="geometry" />
        </mxCell>
        <mxCell id="Hx1Wna5k6tbOr8KZEkLQ-4" value="React 18.2.0&lt;div&gt;Axios 1.6.8&lt;br&gt;Socket.io 4.7.5&lt;br&gt;&lt;/div&gt;&lt;div&gt;Three.js 0.163.0&lt;br&gt;&lt;/div&gt;" style="shape=module;align=left;spacingLeft=20;align=center;verticalAlign=top;whiteSpace=wrap;html=1;fillColor=none;fontFamily=Times New Roman;" parent="1" vertex="1">
          <mxGeometry x="310" y="100" width="140" height="70" as="geometry" />
        </mxCell>
        <mxCell id="REvpEQ_7IWV6Kqo4Qp0O-3" style="edgeStyle=orthogonalEdgeStyle;rounded=0;orthogonalLoop=1;jettySize=auto;html=1;startArrow=classic;startFill=1;entryX=0.542;entryY=0.952;entryDx=0;entryDy=0;entryPerimeter=0;" parent="1" source="REvpEQ_7IWV6Kqo4Qp0O-5" target="REvpEQ_7IWV6Kqo4Qp0O-1" edge="1">
          <mxGeometry relative="1" as="geometry">
            <Array as="points">
              <mxPoint x="40" y="300" />
            </Array>
          </mxGeometry>
        </mxCell>
        <mxCell id="Hx1Wna5k6tbOr8KZEkLQ-6" value="Docker Container" style="verticalAlign=top;align=left;spacingTop=8;spacingLeft=2;spacingRight=12;shape=cube;size=10;direction=south;fontStyle=4;html=1;whiteSpace=wrap;fillColor=none;fontFamily=Times New Roman;" parent="1" vertex="1">
          <mxGeometry x="-80" y="300" width="240" height="320" as="geometry" />
        </mxCell>
        <mxCell id="Hx1Wna5k6tbOr8KZEkLQ-7" value="(OSType=Linux Alpine 3.19.1)" style="text;strokeColor=none;fillColor=none;align=center;verticalAlign=top;spacingLeft=4;spacingRight=4;overflow=hidden;rotatable=0;points=[[0,0.5],[1,0.5]];portConstraint=eastwest;whiteSpace=wrap;html=1;fontFamily=Times New Roman;" parent="1" vertex="1">
          <mxGeometry x="-70" y="590" width="210" height="30" as="geometry" />
        </mxCell>
        <mxCell id="Hx1Wna5k6tbOr8KZEkLQ-8" value="Docker Container&lt;span style=&quot;white-space: pre;&quot;&gt;&#x9;&lt;/span&gt;" style="verticalAlign=top;align=left;spacingTop=8;spacingLeft=2;spacingRight=12;shape=cube;size=10;direction=south;fontStyle=4;html=1;whiteSpace=wrap;fillColor=none;fontFamily=Times New Roman;" parent="1" vertex="1">
          <mxGeometry x="240" y="470" width="190" height="150" as="geometry" />
        </mxCell>
        <mxCell id="Hx1Wna5k6tbOr8KZEkLQ-9" value="(OSType=Linux Alpine 3.19.1,&lt;div&gt;&lt;span style=&quot;background-color: initial;&quot;&gt;DBMS=PostgreSQL&lt;/span&gt;&lt;span style=&quot;background-color: initial;&quot;&gt;&amp;nbsp;16.3)&lt;/span&gt;&lt;/div&gt;" style="text;strokeColor=none;fillColor=none;align=center;verticalAlign=top;spacingLeft=4;spacingRight=4;overflow=hidden;rotatable=0;points=[[0,0.5],[1,0.5]];portConstraint=eastwest;whiteSpace=wrap;html=1;fontFamily=Times New Roman;" parent="1" vertex="1">
          <mxGeometry x="240" y="580" width="180" height="40" as="geometry" />
        </mxCell>
        <mxCell id="Hx1Wna5k6tbOr8KZEkLQ-10" value="Database" style="shape=cylinder3;whiteSpace=wrap;html=1;boundedLbl=1;backgroundOutline=1;size=15;fillColor=none;fontFamily=Times New Roman;" parent="1" vertex="1">
          <mxGeometry x="260" y="515" width="140" height="55" as="geometry" />
        </mxCell>
        <mxCell id="Hx1Wna5k6tbOr8KZEkLQ-11" value="HTTP/1.1" style="text;strokeColor=none;fillColor=none;align=center;verticalAlign=top;spacingLeft=4;spacingRight=4;overflow=hidden;rotatable=0;points=[[0,0.5],[1,0.5]];portConstraint=eastwest;whiteSpace=wrap;html=1;fontFamily=Times New Roman;" parent="1" vertex="1">
          <mxGeometry x="160" y="100" width="60" height="20" as="geometry" />
        </mxCell>
        <mxCell id="Hx1Wna5k6tbOr8KZEkLQ-12" value="TCP" style="text;strokeColor=none;fillColor=none;align=center;verticalAlign=top;spacingLeft=4;spacingRight=4;overflow=hidden;rotatable=0;points=[[0,0.5],[1,0.5]];portConstraint=eastwest;whiteSpace=wrap;html=1;fontFamily=Times New Roman;" parent="1" vertex="1">
          <mxGeometry x="180" y="495" width="40" height="20" as="geometry" />
        </mxCell>
        <mxCell id="Hx1Wna5k6tbOr8KZEkLQ-13" value="" style="edgeStyle=orthogonalEdgeStyle;rounded=0;orthogonalLoop=1;jettySize=auto;html=1;startArrow=classic;startFill=1;fontFamily=Times New Roman;" parent="1" source="Hx1Wna5k6tbOr8KZEkLQ-18" target="REvpEQ_7IWV6Kqo4Qp0O-5" edge="1">
          <mxGeometry relative="1" as="geometry">
            <mxPoint x="188" y="538" as="sourcePoint" />
            <mxPoint x="308" y="538" as="targetPoint" />
            <Array as="points">
              <mxPoint x="190" y="380" />
              <mxPoint x="190" y="380" />
            </Array>
          </mxGeometry>
        </mxCell>
        <mxCell id="Hx1Wna5k6tbOr8KZEkLQ-18" value="Docker Container" style="verticalAlign=top;align=left;spacingTop=8;spacingLeft=2;spacingRight=12;shape=cube;size=10;direction=south;fontStyle=4;html=1;whiteSpace=wrap;fillColor=none;fontFamily=Times New Roman;" parent="1" vertex="1">
          <mxGeometry x="240" y="300" width="190" height="150" as="geometry" />
        </mxCell>
        <mxCell id="Hx1Wna5k6tbOr8KZEkLQ-19" value="(OSType=Linux Alpine 3.19.1,&lt;div&gt;&lt;span style=&quot;background-color: initial;&quot;&gt;DBMS=Redis&lt;/span&gt;&lt;span style=&quot;background-color: initial;&quot;&gt;&amp;nbsp;7.2.5)&lt;/span&gt;&lt;/div&gt;" style="text;strokeColor=none;fillColor=none;align=center;verticalAlign=top;spacingLeft=4;spacingRight=4;overflow=hidden;rotatable=0;points=[[0,0.5],[1,0.5]];portConstraint=eastwest;whiteSpace=wrap;html=1;fontFamily=Times New Roman;" parent="1" vertex="1">
          <mxGeometry x="240" y="410" width="190" height="40" as="geometry" />
        </mxCell>
        <mxCell id="Hx1Wna5k6tbOr8KZEkLQ-20" value="Database" style="shape=cylinder3;whiteSpace=wrap;html=1;boundedLbl=1;backgroundOutline=1;size=15;fillColor=none;fontFamily=Times New Roman;" parent="1" vertex="1">
          <mxGeometry x="260" y="345" width="140" height="55" as="geometry" />
        </mxCell>
        <mxCell id="Hx1Wna5k6tbOr8KZEkLQ-22" value="Bundle.js&lt;br&gt;&lt;div&gt;Public Media&lt;/div&gt;&lt;div&gt;RestaurantScene.glb&lt;/div&gt;" style="rounded=0;whiteSpace=wrap;html=1;fillColor=none;fontFamily=Times New Roman;" parent="1" vertex="1">
          <mxGeometry x="-280" y="350" width="130" height="60" as="geometry" />
        </mxCell>
        <mxCell id="Hx1Wna5k6tbOr8KZEkLQ-24" value="" style="edgeStyle=orthogonalEdgeStyle;rounded=0;orthogonalLoop=1;jettySize=auto;html=1;startArrow=classic;startFill=1;fontFamily=Times New Roman;exitX=0.089;exitY=0.5;exitDx=0;exitDy=0;exitPerimeter=0;" parent="1" source="REvpEQ_7IWV6Kqo4Qp0O-1" target="REvpEQ_7IWV6Kqo4Qp0O-2" edge="1">
          <mxGeometry relative="1" as="geometry">
            <Array as="points">
              <mxPoint x="-200" y="125" />
            </Array>
            <mxPoint x="-450" y="232" as="sourcePoint" />
            <mxPoint x="-370" y="410" as="targetPoint" />
          </mxGeometry>
        </mxCell>
        <mxCell id="Hx1Wna5k6tbOr8KZEkLQ-25" value="Docker Compose" style="text;html=1;align=center;verticalAlign=middle;resizable=0;points=[];autosize=1;strokeColor=none;fillColor=none;fontFamily=Times New Roman;" parent="1" vertex="1">
          <mxGeometry x="-100" y="260" width="110" height="30" as="geometry" />
        </mxCell>
        <mxCell id="Hx1Wna5k6tbOr8KZEkLQ-27" value="WS/13" style="text;strokeColor=none;fillColor=none;align=center;verticalAlign=top;spacingLeft=4;spacingRight=4;overflow=hidden;rotatable=0;points=[[0,0.5],[1,0.5]];portConstraint=eastwest;whiteSpace=wrap;html=1;fontFamily=Times New Roman;" parent="1" vertex="1">
          <mxGeometry x="165" y="120" width="50" height="20" as="geometry" />
        </mxCell>
        <mxCell id="Hx1Wna5k6tbOr8KZEkLQ-28" value="HTTP/1.1" style="text;strokeColor=none;fillColor=none;align=center;verticalAlign=top;spacingLeft=4;spacingRight=4;overflow=hidden;rotatable=0;points=[[0,0.5],[1,0.5]];portConstraint=eastwest;whiteSpace=wrap;html=1;fontFamily=Times New Roman;" parent="1" vertex="1">
          <mxGeometry x="-160" y="100" width="60" height="20" as="geometry" />
        </mxCell>
        <mxCell id="Hx1Wna5k6tbOr8KZEkLQ-29" value="" style="edgeStyle=orthogonalEdgeStyle;rounded=0;orthogonalLoop=1;jettySize=auto;html=1;startArrow=classic;startFill=1;fontFamily=Times New Roman;" parent="1" source="Hx1Wna5k6tbOr8KZEkLQ-8" target="REvpEQ_7IWV6Kqo4Qp0O-5" edge="1">
          <mxGeometry relative="1" as="geometry">
            <mxPoint x="240" y="537.4565217391306" as="sourcePoint" />
            <mxPoint x="139" y="537.4565217391306" as="targetPoint" />
            <Array as="points">
              <mxPoint x="190" y="520" />
              <mxPoint x="190" y="520" />
            </Array>
          </mxGeometry>
        </mxCell>
        <mxCell id="Hx1Wna5k6tbOr8KZEkLQ-30" value="TCP" style="text;strokeColor=none;fillColor=none;align=center;verticalAlign=top;spacingLeft=4;spacingRight=4;overflow=hidden;rotatable=0;points=[[0,0.5],[1,0.5]];portConstraint=eastwest;whiteSpace=wrap;html=1;fontFamily=Times New Roman;" parent="1" vertex="1">
          <mxGeometry x="180" y="355" width="40" height="20" as="geometry" />
        </mxCell>
        <mxCell id="REvpEQ_7IWV6Kqo4Qp0O-1" value="&lt;font style=&quot;font-size: 12px;&quot; face=&quot;Times New Roman&quot;&gt;Internet&lt;/font&gt;" style="ellipse;shape=cloud;whiteSpace=wrap;html=1;fontSize=12;" parent="1" vertex="1">
          <mxGeometry x="-30.5" y="80" width="130" height="90" as="geometry" />
        </mxCell>
        <mxCell id="REvpEQ_7IWV6Kqo4Qp0O-5" value="Node.js 21.7.3" style="verticalAlign=top;align=left;spacingTop=8;spacingLeft=2;spacingRight=12;shape=cube;size=10;direction=south;fontStyle=4;html=1;whiteSpace=wrap;fillColor=none;fontFamily=Times New Roman;" parent="1" vertex="1">
          <mxGeometry x="-60" y="350" width="190" height="230" as="geometry" />
        </mxCell>
        <mxCell id="REvpEQ_7IWV6Kqo4Qp0O-6" value="Nestjs 9.0.0&lt;div&gt;Typeorm 10.0.2&lt;/div&gt;Pg 8.11.5&lt;div&gt;Redis 9.0.5&lt;/div&gt;Automapper 8.8.1&lt;div&gt;Jwt 10.2.0&lt;/div&gt;&lt;div&gt;&lt;div&gt;Casl 6.7.1&lt;/div&gt;&lt;/div&gt;&lt;div&gt;Bcrypt 5.1.1&lt;/div&gt;&lt;div&gt;Socket.io 4.7.5&lt;/div&gt;&lt;div&gt;Winston 3.13.0&lt;/div&gt;" style="shape=module;align=left;spacingLeft=20;align=center;verticalAlign=top;whiteSpace=wrap;html=1;fillColor=none;fontFamily=Times New Roman;" parent="1" vertex="1">
          <mxGeometry x="-40.5" y="400" width="140" height="160" as="geometry" />
        </mxCell>
        <mxCell id="REvpEQ_7IWV6Kqo4Qp0O-11" value="HTTP/1.1" style="text;strokeColor=none;fillColor=none;align=center;verticalAlign=top;spacingLeft=4;spacingRight=4;overflow=hidden;rotatable=0;points=[[0,0.5],[1,0.5]];portConstraint=eastwest;whiteSpace=wrap;html=1;fontFamily=Times New Roman;" parent="1" vertex="1">
          <mxGeometry x="-20" y="185" width="60" height="20" as="geometry" />
        </mxCell>
        <mxCell id="REvpEQ_7IWV6Kqo4Qp0O-12" value="WS/13" style="text;strokeColor=none;fillColor=none;align=center;verticalAlign=top;spacingLeft=4;spacingRight=4;overflow=hidden;rotatable=0;points=[[0,0.5],[1,0.5]];portConstraint=eastwest;whiteSpace=wrap;html=1;fontFamily=Times New Roman;" parent="1" vertex="1">
          <mxGeometry x="40" y="185" width="50" height="20" as="geometry" />
        </mxCell>
      </root>
    </mxGraphModel>
  </diagram>
</mxfile>
